<svg id="Layer_1" data-name="Layer 1" xmlns="http://www.w3.org/2000/svg" viewBox="0 0 652.31 161.9"><defs><style>.cls-1{fill:#195068;}.cls-2{fill:none;stroke-width:9px;}.cls-2,.cls-3{stroke:#a2c67f;stroke-miterlimit:10;}.cls-3{fill:#a2c67f;stroke-width:2px;}</style></defs><path class="cls-1" d="M129,54.24h22L166.79,97.9c1.45,4.18,2.71,8.15,3.78,11.94l1.89,6h.59l2.62-8.29q2.33-7.86,3.05-9.61l15.43-43.66h22v95h-18.2v-37.7q0-8,1.9-25.9l.58-5.68h-.58l-7.72,22.27L178,140.84H166.64l-14.11-38.57L145,80h-.59l.59,5.68q1.89,17.89,1.89,25.9v37.7H129Z"/><path class="cls-1" d="M236.21,54.24h19.94v95H236.21Z"/><path class="cls-1" d="M276.23,54.24h19.94V94.55h.59l30.12-40.31h22l-29,37.69L354,149.28H332.12l-24-41.63-11.94,15.43v26.2H276.23Z"/><path class="cls-1" d="M373.82,145.06a39.81,39.81,0,0,1-15.06-17.25q-5.38-11.28-5.39-26.42t5.39-26.27a39.24,39.24,0,0,1,15.06-16.81,45.79,45.79,0,0,1,44.68,0,38.66,38.66,0,0,1,15,16.89q5.31,11.05,5.32,26.19t-5.32,26.42a39.35,39.35,0,0,1-15,17.25,44.85,44.85,0,0,1-44.68,0ZM412.39,125q6-8.73,6-23.58,0-14.69-6-23.14a19.94,19.94,0,0,0-32.53-.07q-6,8.37-6,23.21t6,23.58q6,8.73,16.23,8.74T412.39,125Z"/><path class="cls-1" d="M470,145.06A39.81,39.81,0,0,1,455,127.81q-5.38-11.28-5.38-26.42T455,75.12A39.24,39.24,0,0,1,470,58.31a45.81,45.81,0,0,1,44.69,0,38.72,38.72,0,0,1,15,16.89Q535,86.26,535,101.39t-5.31,26.42a39.41,39.41,0,0,1-15,17.25,44.87,44.87,0,0,1-44.69,0ZM508.59,125q6-8.73,6-23.58,0-14.69-6-23.14a19.94,19.94,0,0,0-32.53-.07q-6,8.37-6,23.21t6,23.58q6,8.73,16.23,8.74T508.59,125Z"/><path class="cls-1" d="M550.44,54.24h22L588.28,97.9c1.45,4.18,2.71,8.15,3.78,11.94l1.89,6h.59l2.62-8.29q2.33-7.86,3.05-9.61l15.43-43.66h22v95h-18.2v-37.7q0-8,1.9-25.9L621.9,80h-.58l-7.72,22.27-14.12,38.57H588.13L574,102.27,566.45,80h-.59l.59,5.68q1.89,17.89,1.89,25.9v37.7h-17.9Z"/><path class="cls-2" d="M91.5,79.4c0,36.05-38.57,63.51-38.57,63.51S14.35,114.33,14.35,79.4a38.58,38.58,0,1,1,77.15,0Z"/><circle class="cls-2" cx="52.93" cy="78.24" r="15.03"/><path class="cls-3" d="M78.18,31.06a2,2,0,0,0,.45,4.05,10.46,10.46,0,0,1,11.54,9.25,2,2,0,0,0,4-.45A14.56,14.56,0,0,0,78.18,31.06Z"/><path class="cls-3" d="M80.09,19a2,2,0,1,0,.44,4,19.3,19.3,0,0,1,21.27,17,2,2,0,1,0,4-.45A23.35,23.35,0,0,0,80.09,19Z"/><path class="cls-3" d="M81.05,7.85a2,2,0,1,0,.45,4,28.13,28.13,0,0,1,31,24.84,2,2,0,1,0,4-.45A32.15,32.15,0,0,0,81.05,7.85Z"/></svg>